<svg xmlns="http://www.w3.org/2000/svg" id="svgC" width="100%" height="100%" viewBox="0 0 620 120" preserveAspectRatio="xMidYMid meet"><desc>Created with Snap</desc><defs/><path d="M62.9 14.9c-25-7.74-56.6 4.8-60.4 24.3-3.73 19.6 21.6 35 39.6 37.6 42.8 6.2 72.9-53.4 116-58.9 65-18.2 191 101 215 28.8 5-16.7-7-49.1-34-44-34 11.5-31 46.5-14 69.3 9.38 12.6 24.2 20.6 39.8 22.9 91.4 9.05 102-98.9 176-86.7 18.8 3.81 33 17.3 36.7 34.6 2.01 10.2.124 21.1-5.18 30.1" id="squiggle" fill="none" stroke="rgba(0,0,0,0.1)" strokeMiterLimit="10" strokeDashOffset="180" style="stroke-width: 1; stroke-dasharray: 5, 10;"/><g transform="matrix(0.2956,-0.9553,0.9553,0.2956,43.2367,24.8965)"><polyline points="0, 30, 15, 0, 30, 30" id="plane" fill="rgba(0,0,0,0.05)" style=""/></g></svg>