<svg width="60" height="60" viewBox="0 0 60 60" fill="none" xmlns="http://www.w3.org/2000/svg">
<circle cx="30" cy="30" r="30" fill="#25D366"/>
<g clip-path="url(#clip0_442_1064)">
<path d="M18.6881 18.688C24.9361 12.44 35.0668 12.44 41.3148 18.688C47.5628 24.936 47.5628 35.0653 41.3148 41.3146C38.9578 43.6715 35.9238 45.2337 32.6362 45.7833C29.3486 46.3328 25.9715 45.8422 22.9761 44.3799L15.2241 45.3599C15.1448 45.37 15.0642 45.3617 14.9886 45.3358C14.913 45.3098 14.8443 45.2668 14.7879 45.2102C14.7315 45.1535 14.6888 45.0847 14.6632 45.0089C14.6376 44.9332 14.6297 44.8526 14.6401 44.7733L15.6375 37.0559C14.1667 34.0587 13.6702 30.6766 14.2175 27.3831C14.7647 24.0896 16.3284 21.0498 18.6895 18.6893L18.6881 18.688ZM23.5015 41.4119L23.9015 41.6226C26.38 42.922 29.2089 43.3955 31.9754 42.9738C34.7419 42.5521 37.3013 41.2574 39.2801 39.2786C44.4041 34.1546 44.4041 25.8466 39.2801 20.7213C34.1561 15.5973 25.8468 15.5973 20.7228 20.7213C18.7404 22.7038 17.4448 25.2689 17.0257 28.041C16.6065 30.8131 17.0859 33.6466 18.3935 36.1266L18.6068 36.5306L17.9268 41.7866C17.9216 41.8263 17.9255 41.8666 17.9383 41.9044C17.9512 41.9423 17.9725 41.9767 18.0007 42.0051C18.0289 42.0334 18.0632 42.0549 18.101 42.0679C18.1389 42.0808 18.1791 42.085 18.2188 42.0799L23.5001 41.4119H23.5015ZM32.2135 32.0746L30.9695 33.6266C29.0441 32.4953 27.4392 30.8913 26.3068 28.9666L27.8615 27.7226C28.0439 27.577 28.173 27.375 28.2285 27.1482C28.284 26.9215 28.2627 26.6827 28.1681 26.4693L26.7481 23.28C26.6463 23.0512 26.4666 22.866 26.241 22.7573C26.0153 22.6487 25.7585 22.6236 25.5161 22.6866C24.6168 22.9188 23.7177 23.1517 22.8188 23.3853C22.5672 23.451 22.3484 23.6068 22.2039 23.823C22.0594 24.0393 21.9993 24.301 22.0348 24.5586C22.5082 27.9292 24.066 31.054 26.4727 33.4607C28.8794 35.8674 32.0043 37.4252 35.3748 37.8986C35.6322 37.9342 35.8938 37.8742 36.11 37.73C36.3262 37.5858 36.4821 37.3673 36.5481 37.1159L37.2481 34.4186C37.3108 34.1764 37.2856 33.9199 37.1769 33.6946C37.0683 33.4693 36.8833 33.2897 36.6548 33.1879L33.4668 31.7693C33.2534 31.6747 33.0146 31.6534 32.7878 31.7089C32.5611 31.7644 32.3591 31.8935 32.2135 32.0759V32.0746Z" fill="white"/>
</g>
<defs>
<clipPath id="clip0_442_1064">
<rect width="32" height="32" fill="white" transform="translate(14 14)"/>
</clipPath>
</defs>
</svg>
