<svg width="127" height="90" viewBox="0 0 127 90" fill="none" xmlns="http://www.w3.org/2000/svg">
<path d="M81.9717 0V16.8092H63.0991L57.5317 0H81.9717Z" fill="#232C42"/>
<path d="M46.1611 0C46.1611 0 54.0178 0.0988589 58.3792 6.97589C59.8684 9.36422 60.6486 12.118 60.6308 14.9234V16.8089H65.2849V15.2219C65.2928 13.2423 65.098 11.267 64.7036 9.32606C64.0241 6.07499 62.116 1.60222 59.5135 0H46.1611Z" fill="#24425F"/>
<path d="M46.1611 0V36.7783C46.1612 37.2356 46.208 37.6918 46.3006 38.1399C46.8403 40.7606 49.2693 48.8854 58.7433 50.135H79.126V36.2075H60.6308V14.7372C60.6475 11.8871 59.8217 9.0942 58.2547 6.70152C56.2579 3.69312 52.6401 0.54835 46.1611 0Z" fill="#17A2B8"/>
<path d="M25.6634 71.8602C29.2594 71.8602 32.1745 68.9792 32.1745 65.4252C32.1745 61.8713 29.2594 58.9902 25.6634 58.9902C22.0674 58.9902 19.1523 61.8713 19.1523 65.4252C19.1523 68.9792 22.0674 71.8602 25.6634 71.8602Z" fill="#17A2B8"/>
<path d="M13.5012 68.7623L16.1971 71.4269C14.4592 73.1445 12.3609 74.0033 9.90236 74.0033C7.44368 74.0033 5.34542 73.1445 3.60745 71.4269C1.86948 69.7092 1.00049 67.6354 1.00049 65.2055C1.00049 62.7756 1.86948 60.7019 3.60745 58.9842C5.34542 57.2665 7.44368 56.4077 9.90236 56.4077C12.3609 56.4077 14.4592 57.2665 16.1971 58.9842L13.5012 61.6487C12.5093 60.6683 11.3096 60.1782 9.90236 60.1782C8.49499 60.1782 7.29533 60.6683 6.30348 61.6487C5.31151 62.629 4.81555 63.8146 4.81555 65.2055C4.81555 66.5964 5.31151 67.782 6.30348 68.7623C7.29533 69.7426 8.49499 70.2328 9.90236 70.2328C11.3096 70.2328 12.5093 69.7426 13.5012 68.7623ZM25.2643 56.4077C27.7229 56.4077 29.8212 57.2665 31.5592 58.9842C33.2972 60.7019 34.1661 62.7756 34.1661 65.2055C34.1661 67.6354 33.2972 69.7092 31.5592 71.4269C29.8212 73.1445 27.7229 74.0033 25.2643 74.0033C22.8057 74.0033 20.7075 73.1445 18.9694 71.4269C17.2315 69.7092 16.3625 67.6354 16.3625 65.2055C16.3625 62.7756 17.2315 60.7019 18.9694 58.9842C20.7075 57.2665 22.8057 56.4077 25.2643 56.4077ZM25.2643 60.1782C23.857 60.1782 22.6574 60.6683 21.6654 61.6487C20.6735 62.629 20.1776 63.8146 20.1776 65.2055C20.1776 66.5964 20.6735 67.782 21.6654 68.7623C22.6574 69.7426 23.857 70.2328 25.2643 70.2328C26.6717 70.2328 27.8714 69.7426 28.8632 68.7623C29.8552 67.782 30.3511 66.5964 30.3511 65.2055C30.3511 63.8146 29.8552 62.629 28.8632 61.6487C27.8714 60.6683 26.6717 60.1782 25.2643 60.1782ZM43.068 56.4077C45.5011 56.4245 47.5782 57.2833 49.2992 58.9842C51.0372 60.7019 51.9063 62.7756 51.9063 65.2055C51.9063 67.6354 51.0372 69.7092 49.2992 71.4269C47.5782 73.1277 45.5011 73.9866 43.068 74.0033H36.7096V56.4077H43.068ZM43.068 70.2328C44.4499 70.2161 45.6283 69.7259 46.6033 68.7623C47.5952 67.782 48.0912 66.5964 48.0912 65.2055C48.0912 63.8146 47.5952 62.629 46.6033 61.6487C45.6283 60.6851 44.4499 60.1949 43.068 60.1782H40.5246V70.2328H43.068ZM68.5018 56.4077V60.1782H58.3283V63.3203H65.9584V67.0908H58.3283V70.2328H68.5018V74.0033H54.5132V56.4077H68.5018ZM71.0452 56.4077H74.8602V70.2328H85.0337V74.0033H71.0452V56.4077ZM91.3922 56.4077V74.0033H87.5772V56.4077H91.3922ZM97.7507 64.1498V74.0033H93.9357V56.3574L106.653 66.2612V56.4077H110.467V74.0536L97.7507 64.1498ZM127 56.4077V60.1782H116.826V63.3203H124.456V67.0908H116.826V70.2328H127V74.0033H113.011V56.4077H127Z" fill="black"/>
<path d="M118.74 85.8145H126.55" stroke="black" stroke-width="0.5" stroke-linecap="round"/>
<path d="M116.564 88.1318C117.76 88.1318 118.729 87.1714 118.729 85.9868C118.729 84.8021 117.76 83.8418 116.564 83.8418C115.369 83.8418 114.4 84.8021 114.4 85.9868C114.4 87.1714 115.369 88.1318 116.564 88.1318Z" fill="black"/>
<path d="M8.81589 85.986L0.999878 85.9861" stroke="black" stroke-width="0.5" stroke-linecap="round"/>
<path d="M10.5362 83.8428C9.34078 83.8428 8.37171 84.8032 8.37171 85.9878C8.37171 87.1725 9.34078 88.1328 10.5362 88.1328C11.7316 88.1328 12.7007 87.1725 12.7007 85.9878C12.7007 84.8032 11.7316 83.8428 10.5362 83.8428Z" fill="black"/>
<path fill-rule="evenodd" clip-rule="evenodd" d="M20.96 89.9871V81.1893H18.9995V89.9871H20.96ZM25.2244 89.9871V85.0602L31.0434 89.987V81.1641H29.1359V86.0102L23.3169 81.1641V89.9871H25.2244ZM38.0154 83.0493V81.1641H32.3836V89.9619H34.2911V86.5055H38.0154V84.6203H34.2911V83.0493H38.0154ZM47.215 82.4522C46.346 81.5935 45.2969 81.1641 44.0676 81.1641C42.8383 81.1641 41.7892 81.5935 40.9201 82.4522C40.0511 83.3111 39.6166 84.348 39.6166 85.5629C39.6166 86.7778 40.0511 87.8147 40.9201 88.6736C41.7892 89.5324 42.8383 89.9619 44.0676 89.9619C45.2969 89.9619 46.346 89.5324 47.215 88.6736C48.084 87.8147 48.5185 86.7778 48.5185 85.5629C48.5185 84.348 48.084 83.3111 47.215 82.4522ZM42.2682 83.7845C42.7641 83.2944 43.364 83.0493 44.0676 83.0493C44.7712 83.0493 45.3711 83.2944 45.867 83.7845C46.363 84.2747 46.611 84.8675 46.611 85.5629C46.611 86.2584 46.363 86.8512 45.867 87.3413C45.3711 87.8316 44.7712 88.0766 44.0676 88.0766C43.364 88.0766 42.7641 87.8316 42.2682 87.3413C41.7722 86.8512 41.5243 86.2584 41.5243 85.5629C41.5243 84.8675 41.7722 84.2747 42.2682 83.7845ZM53.5544 89.9619V83.0493H56.0977V81.1641H49.1035V83.0493H51.6469V89.9619H53.5544ZM63.8413 83.0493V81.1641H57.4554V89.9619H63.8413V88.0766H59.4575V86.5055H62.5697V84.6203H59.4575V83.0493H63.8413ZM73.2339 88.6736L71.8859 87.3413C71.3898 87.8316 70.79 88.0766 70.0864 88.0766C69.3827 88.0766 68.7829 87.8316 68.287 87.3413C67.7909 86.8512 67.543 86.2584 67.543 85.5629C67.543 84.8675 67.7909 84.2747 68.287 83.7845C68.7829 83.2944 69.3827 83.0493 70.0864 83.0493C70.79 83.0493 71.3898 83.2944 71.8859 83.7845L73.2339 82.4522C72.3649 81.5935 71.3157 81.1641 70.0864 81.1641C68.8571 81.1641 67.808 81.5935 66.939 82.4522C66.07 83.3111 65.6355 84.348 65.6355 85.5629C65.6355 86.7778 66.07 87.8147 66.939 88.6736C67.808 89.5324 68.8571 89.9619 70.0864 89.9619C71.3157 89.9619 72.3649 89.5324 73.2339 88.6736ZM76.4448 89.9619V86.5055H80.8957V89.9619H82.8033V81.1641H80.8957V84.6203H76.4448V81.1641H74.5373V89.9619H76.4448ZM90.0906 81.1641V83.0493V88.0766H93.815V89.9619H90.0906H88.1831V81.1641H90.0906ZM97.2906 83.0493V81.1641H95.3831V89.9619H97.2906H101.015V88.0766H97.2906V83.0493ZM105.399 86.7513H103.81V89.9619L102.125 89.9967V81.1641H104.032H105.399C105.399 81.1641 108.009 81.1641 108.099 83.9577C108.009 86.7475 105.399 86.7513 105.399 86.7513ZM103.824 82.5024L103.824 85.1782H104.949C104.949 85.1782 106.299 85.1782 106.326 83.8403C106.299 82.5024 104.949 82.5024 104.949 82.5024H103.824Z" fill="black"/>
</svg>
