<svg width="18" height="32" viewBox="0 0 18 32" fill="none" xmlns="http://www.w3.org/2000/svg">
<path d="M16 32C16.5304 32 17.0391 31.7893 17.4142 31.4142C17.7893 31.0391 18 30.5304 18 30V2C18 1.46957 17.7893 0.960859 17.4142 0.585786C17.0391 0.210714 16.5304 0 16 0L2 0C1.46957 0 0.96086 0.210714 0.585787 0.585786C0.210714 0.960859 0 1.46957 0 2V30C0 30.5304 0.210714 31.0391 0.585787 31.4142C0.96086 31.7893 1.46957 32 2 32H16ZM8 28.876C7.99551 28.7256 8.02125 28.5759 8.0757 28.4357C8.13014 28.2954 8.21218 28.1676 8.31695 28.0596C8.42172 27.9517 8.54709 27.8659 8.68563 27.8073C8.82418 27.7487 8.97307 27.7185 9.1235 27.7185C9.27393 27.7185 9.42282 27.7487 9.56137 27.8073C9.69991 27.8659 9.82528 27.9517 9.93005 28.0596C10.0348 28.1676 10.1169 28.2954 10.1713 28.4357C10.2257 28.5759 10.2515 28.7256 10.247 28.876C10.2383 29.1682 10.1161 29.4454 9.90635 29.649C9.6966 29.8526 9.4158 29.9665 9.1235 29.9665C8.8312 29.9665 8.5504 29.8526 8.34065 29.649C8.13091 29.4454 8.00872 29.1682 8 28.876V28.876ZM13 2C13.2652 2 13.5196 2.10536 13.7071 2.29289C13.8946 2.48043 14 2.73478 14 3C14 3.26522 13.8946 3.51957 13.7071 3.70711C13.5196 3.89464 13.2652 4 13 4H11C10.7348 4 10.4804 3.89464 10.2929 3.70711C10.1054 3.51957 10 3.26522 10 3C10 2.73478 10.1054 2.48043 10.2929 2.29289C10.4804 2.10536 10.7348 2 11 2H13ZM8 3C8 3.26522 7.89464 3.51957 7.70711 3.70711C7.51957 3.89464 7.26522 4 7 4C6.73478 4 6.48043 3.89464 6.29289 3.70711C6.10536 3.51957 6 3.26522 6 3C6 2.73478 6.10536 2.48043 6.29289 2.29289C6.48043 2.10536 6.73478 2 7 2C7.26522 2 7.51957 2.10536 7.70711 2.29289C7.89464 2.48043 8 2.73478 8 3V3ZM2 6H16V26H2V6Z" fill="#00A4C0"/>
</svg>
